# xmcd CD database file
#
# Track frame offsets:
#	182
#	14335
#	34105
#	48077
#	61547
#	73132
#	87565
#	100462
#	115045
#	128767
#
# Disc length: 1883 seconds
#
# Revision: 1
# Processed by: cddbd v1.4PL0 Copyright (c) Steve Scherf et al.
# Submitted via: Gronk 1.4
#
DISCID=7e07590a
DTITLE=Marty Robbins - Best Of Marty Robbins
DYEAR=1900
DGENRE=country
TTITLE0=Walking Piece Of Heaven
TTITLE1=Love Me
TTITLE2=Twentiety Century Drifter
TTITLE3=Don't You Think
TTITLE4=Life
TTITLE5=A Man And A Train
TTITLE6=Crawlin' On My Knees
TTITLE7=It Takes Faith
TTITLE8=Shotgun Rider
TTITLE9=Two Gun Daddy
EXTD=
EXTT0=
EXTT1=
EXTT2=
EXTT3=
EXTT4=
EXTT5=
EXTT6=
EXTT7=
EXTT8=
EXTT9=
PLAYORDER=
